<?xml version="1.0" encoding="utf-8"?>
<!-- Generator: Adobe Illustrator 18.1.1, SVG Export Plug-In . SVG Version: 6.00 Build 0)  -->
<svg version="1.1" id="Layer_1" xmlns="http://www.w3.org/2000/svg" xmlns:xlink="http://www.w3.org/1999/xlink" x="0px" y="0px"
	 viewBox="0 0 187.2 255.8" enable-background="new 0 0 187.2 255.8" xml:space="preserve">
<g>
	<g>
		<path stroke="#000000" class="svg-icon" stroke-width="2" stroke-miterlimit="10" d="M95.3,159.7c-1.4-1.4-2.7-2.1-4.1-2.7
			c-6.5-2.8-13.3-4-20.3-3.2c-0.4,0-0.8,0.1-1.2,0.1c-2,0.1-4.2,0.7-5.4-1.5c-1.2-2.2,0.6-3.6,1.7-5.1c5.4-7.9,10.7-15.9,13.4-25.3
			c1.4-4.9,3.5-9.6,5.2-14.4c0.8-2.4,1.2-4.8,0.9-7.3c-0.2-1.6-0.8-2.4-2.7-2.1c-6.3,0.9-12.5,2.7-19,2.8
			c-11.7,0.2-23.4,0.6-34.1-5.5c-0.8-0.4-1.5-0.8-2.3-1.3c-6.6-3.5-9.2-8.3-5-17.1c4.6-9.7,12.6-15.4,22.7-18.5
			c9.9-3,20.1-4.6,30.4-4.9c8.7-0.2,17.4-0.7,26.1-1.2c1.5-0.1,2.9,0.1,4.2,0.7c1.3,0.7,1.9,1.8,1.4,3.2c-0.5,1.5-1.6,2.3-3.1,2
			c-11.3-2.2-22.7-2.2-34.2-1.8c-10.2,0.3-20.1,2.7-29.4,7.1C34.4,66.6,29.5,71,26.2,77c-1,1.9-1.6,3.8-1.8,5.9
			c-0.3,2.7,0.7,4.9,2.8,6.5c6.6,4.8,13.7,8.1,22,8.4c11.5,0.4,22.6-1.3,33.6-4.6c4.5-1.4,8.3,1.7,8.1,6.6c-0.2,3.6-1,7-2.4,10.2
			c-2.7,6.6-5.4,13.2-7.8,19.9c-2.1,5.8-5.7,10.9-8.6,16.3c-1.4,2.6-1.5,2.7,1.6,2.6c6.9-0.2,13.5,1.1,19.7,4.3
			c3.4,1.8,6.6,3.9,9.4,6.6c1,0.9,1.7,2,1.2,3.4c-0.6,1.5-1.9,1.9-3.3,2c-0.8,0.1-1.6,0-2.4-0.1c-10.2-1.5-20.4-0.9-30.7-0.8
			c-0.9,0-1.7,0.3-2.6,0.3c-1.4,0.1-1.9,0.9-1.8,2.2c0.1,3.2,0.1,6.4,0.2,9.6c0,2.9,0.7,3.5,3.7,3.7c8.3,0.5,16.6,0.5,24.9,0.4
			c6.9-0.1,13.8-0.2,20.6-0.3c1,0,1.9,0,2.9,0.1c3.7,0.3,3.7,0.3,3.8-3.3c0.6-17.2,5.2-33.2,13.4-48.3c5.2-9.6,9.3-19.6,13-29.9
			c1.3-3.5,1.9-7.1,1.6-10.8c-0.2-2.1,1-3.4,2.8-3.4c1.9,0,3.1,1.4,2.9,3.6c-0.4,4-1.7,7.8-3.4,11.4c-5.3,10.9-10.9,21.7-16,32.7
			c-7.1,15.3-11.4,31.4-10.9,48.4c0.1,3,1.8,5.7,2.5,8.7c3.4,15.3,6.2,30.7,8,46.3c0.4,3,0.5,6.1,0.7,9.1c0.1,1.8-0.3,3.5-1.8,4.8
			c-1,0.9-2.2,1-3.3,0.3c-1.1-0.7-1.5-1.9-1-2.9c2.1-3.9,1.5-8.1,1.7-12.2c0.5-8.2-1-16.2-3.4-24.1c-2.1-7-4.4-14-6.5-21.1
			c-0.4-1.3-0.8-2-2.3-1.6c-1.1,0.2-2.3,0-2.6-1.1c-0.5-1.9-1.9-1.8-3.3-1.8c-15.5,0-31-0.6-46.5,0.2c-5.1,0.3-7.9,3.1-10.2,6.8
			c-3.2,5.2-5.5,10.8-7.6,16.5c-3,8.2-5.8,16.4-8.7,24.6c-0.8,2.4-1.1,4.8-1.4,7.3c-0.2,1.6-0.9,2.7-2.2,3.5
			c-1.2,0.7-2.3,0.6-3.3-0.3c-1-0.9-1.1-2.1-0.5-3.3c4.7-9.3,8.6-18.8,11.4-28.8c1.7-6.2,4.3-12,6.9-17.8c2-4.6,4.7-8.7,8.6-11.9
			c1-0.8,1-1.7,1.1-2.8c0.4-4.3-0.6-8.4-1.4-12.6c-0.4-2.2,0.6-3,2.3-4.3c4.3-3.4,9-2.2,13.7-2.2C80.6,159.7,87.7,159.7,95.3,159.7z
			"/>
		<path stroke="#000000" class="svg-icon" fill="#000000" stroke-width="2" stroke-miterlimit="10" d="M97,214.9c1.1,0,2,0.4,2.6,1.4c0.5,1,0.6,2.1-0.1,2.9
			c-1.6,1.7-2,3.7-2.6,5.8c-2,7.8-3.9,15.6-5.9,23.4c-0.2,0.8-0.5,1.5-0.8,2.2c-0.8,1.4-2,2.2-3.6,1.3c-1.6-0.9-1.9-2.2-1.1-3.8
			c2.5-4.7,4.8-9.5,5.7-14.9c0.9-4.9,0.7-9.9,2.1-14.7C93.9,216.6,95.3,215,97,214.9z"/>
		<path stroke="#000000" class="svg-icon" stroke-width="2" stroke-miterlimit="10" d="M177.8,39.4c-0.4,7.7-0.3,14.4-1.6,21.1
			c-0.4,1.8-0.9,3.6-1.5,5.3c-0.4,1.1-1.3,1.7-2.5,1.2c-1-0.4-1.6-1.3-1.2-2.3c5.5-12,2.1-24.4,2.2-36.7c0-0.4-0.1-0.8-0.1-1.2
			c0-1.6,0.5-2.7,2.2-2.8c1.7-0.1,2.5,1,2.6,2.5c0.1,2.5-0.1,5-0.2,7.4C177.7,36.1,177.8,38.3,177.8,39.4z"/>
		<path stroke="#000000" class="svg-icon" stroke-width="2" stroke-miterlimit="10" d="M167.1,46.9c-0.1,4.6,0.2,7.8-0.7,11c-0.4,1.4-0.8,3.1-2.8,2.4
			c-1.8-0.6-1.4-2-0.9-3.4c1.9-5.2,0.7-10.4-0.3-15.6c-0.6-3.5-1.7-7-2.8-10.4c-0.8-2.2-0.1-3.9,1.7-4.2c2.1-0.4,3.1,0.9,3.5,2.7
			C166.2,35.6,167.3,41.9,167.1,46.9z"/>
		<path stroke="#000000" class="svg-icon" stroke-width="2" stroke-miterlimit="10" d="M153.6,43.3c-0.2,4.5-1,9,0,13.6c0.2,1-0.3,1.8-1.3,2
			c-1.2,0.2-1.7-0.7-1.9-1.7c-0.9-3.8-0.7-7.8-1-11.7c-0.4-5.1-0.6-10.2-2.4-15c-0.5-1.5,0-2.8,1.4-3.4c1.6-0.6,2.9,0,3.5,1.6
			c0.5,1.2,0.9,2.4,1,3.7C153.3,35.9,153.4,39.6,153.6,43.3z"/>
		<path stroke="#000000" class="svg-icon" stroke-width="2" stroke-miterlimit="10" d="M133.8,25.3c1.3,0,2,0.7,2.6,1.8c4,8.7,7.1,17.6,8,27.2
			c0.1,1,0.1,2-1.1,2.3c-1.4,0.3-1.7-0.8-1.9-1.9c-0.6-3-0.8-6-1.8-8.9c-1.8-5.2-4.5-10-7.2-14.8c-0.4-0.7-0.9-1.3-1.1-2.1
			C130.6,27,131.9,25.3,133.8,25.3z"/>
		<path stroke="#000000" class="svg-icon" stroke-width="2" stroke-miterlimit="10" d="M107.1,45.7c-1.5-0.1-2.5-1.1-2.5-2.9c0-1.8,1.7-3.3,3.7-3.2
			c1.8,0.1,2.8,1.1,2.8,2.9C111.2,44.2,109.3,45.7,107.1,45.7z"/>
		<path stroke="#000000" class="svg-icon" stroke-width="2" stroke-miterlimit="10" d="M115.6,48.3c-0.1-2,1.4-3.6,3-3.7c1.7-0.1,3.1,1.3,3.1,2.9
			c0,1.6-1.6,3.3-3.2,3.3C116.8,50.8,115.8,49.8,115.6,48.3z"/>
	</g>
</g>
</svg>
